<svg xmlns="http://www.w3.org/2000/svg" width="121.707" height="32.567" viewBox="0 0 121.707 32.567">
    <defs>
        <style>
            .prefix__cls-1{fill:#414042}.prefix__cls-2{fill:#099ad7}
        </style>
    </defs>
    <g id="prefix__Logo-vector" transform="translate(-254.763 -8.835)">
        <g id="prefix__Group_301" data-name="Group 301" transform="translate(288.473 12.194)">
            <path id="prefix__Path_561" d="M311.4 14.249v8.919a5.93 5.93 0 0 1 5.014-2.409c4.557 0 6.575 3.093 6.575 7.813v8.463h-3.972V28.6c0-2.93-1.53-4.167-3.645-4.167a4.114 4.114 0 0 0-3.972 4.4v8.2h-3.97V14.249z" class="prefix__cls-1" data-name="Path 561" transform="translate(-307.43 -14.143)"/>
            <path id="prefix__Path_562" d="M337.928 33.942c.26 1.985 1.985 3.419 4.785 3.419a6.628 6.628 0 0 0 4.3-1.5l2.538 2.506a9.857 9.857 0 0 1-6.9 2.6c-5.533 0-8.821-3.418-8.821-8.561 0-4.883 3.32-8.4 8.528-8.4 5.372 0 8.725 3.321 8.106 9.928zm8.723-3.288c-.26-2.083-1.888-3.125-4.167-3.125a4.323 4.323 0 0 0-4.491 3.125z" class="prefix__cls-1" data-name="Path 562" transform="translate(-316.931 -17.658)"/>
            <path id="prefix__Path_563" d="M366.24 24.539l.293 1.855a4.731 4.731 0 0 1 4.525-2.278 6.09 6.09 0 0 1 4.134 1.529L373.4 29.1a3.968 3.968 0 0 0-2.864-1.042 3.7 3.7 0 0 0-4 4.069v8.463h-3.972V24.539z" class="prefix__cls-1" data-name="Path 563" transform="translate(-327.274 -17.694)"/>
            <path id="prefix__Path_564" d="M398.129 32.634a8.35 8.35 0 1 1-16.7 0 8.35 8.35 0 1 1 16.7 0zm-12.728 0c0 2.442 1.465 4.72 4.362 4.72s4.361-2.278 4.361-4.72a4.532 4.532 0 0 0-4.361-4.752c-2.863-.001-4.363 2.343-4.363 4.752z" class="prefix__cls-1" data-name="Path 564" transform="translate(-334.066 -17.749)"/>
            <path id="prefix__Path_565" d="M422.581 24.374h3.364v13.484a9.275 9.275 0 0 1-2.24 6.6 8.01 8.01 0 0 1-6.147 2.394 8.341 8.341 0 0 1-4.891-1.373 7.9 7.9 0 0 1-2.894-4.076h3.627a4.25 4.25 0 0 0 1.674 1.7 5.205 5.205 0 0 0 6.074-.846 5.336 5.336 0 0 0 1.4-3.855v-.162a7.316 7.316 0 0 1-2.483 1.712 7.884 7.884 0 0 1-3.055.58 8.427 8.427 0 0 1-3.063-.558 7.858 7.858 0 0 1-2.562-1.6 8.261 8.261 0 0 1-1.9-2.732 8.026 8.026 0 0 1-.691-3.231 8.335 8.335 0 0 1 2.32-6.059 7.866 7.866 0 0 1 5.891-2.387 7.726 7.726 0 0 1 3 .573 7.949 7.949 0 0 1 2.563 1.763zm-10.047 7.8a4.819 4.819 0 0 0 1.417 3.54 4.73 4.73 0 0 0 3.49 1.425 4.934 4.934 0 0 0 4.788-4.788 4.878 4.878 0 0 0-1.425-3.533 4.576 4.576 0 0 0-3.393-1.461 4.753 4.753 0 0 0-3.452 1.4 4.606 4.606 0 0 0-1.425 3.416z" class="prefix__cls-1" data-name="Path 565" transform="translate(-343.919 -17.639)"/>
            <path id="prefix__Path_566" d="M442.277 16.4a2.344 2.344 0 0 1-4.688 0 2.344 2.344 0 0 1 4.688 0zm-4.33 4.46v16.115h3.971V20.862z" class="prefix__cls-1" data-name="Path 566" transform="translate(-354.28 -14.083)"/>
        </g>
        <g id="prefix__Group_302" data-name="Group 302" transform="translate(254.763 8.835)">
            <path id="prefix__Path_567" d="M282.828 26.562c-.141.089-.285.177-.437.259l-8.181 4.359a11.716 11.716 0 0 1-10 0l-8.181-4.359c-.153-.082-.3-.17-.439-.259-1.368 1.275-1.038 2.927 1.006 4.016l8.181 4.359a10.529 10.529 0 0 0 8.862 0l8.181-4.359c2.047-1.089 2.38-2.741 1.008-4.016z" class="prefix__cls-2" data-name="Path 567" transform="translate(-254.765 -15.216)"/>
            <path id="prefix__Path_568" d="M282.828 34.658c-.141.089-.285.177-.437.259l-8.181 4.359a11.71 11.71 0 0 1-10 0l-8.181-4.359c-.153-.082-.3-.17-.439-.259-1.368 1.275-1.038 2.927 1.006 4.016l8.181 4.359a10.529 10.529 0 0 0 8.862 0l8.181-4.359c2.047-1.089 2.38-2.741 1.008-4.016z" class="prefix__cls-2" data-name="Path 568" transform="translate(-254.765 -18.13)"/>
            <path id="prefix__Path_569" d="M282.828 42.754c-.141.089-.285.177-.437.259l-8.181 4.359a11.713 11.713 0 0 1-10 0l-8.181-4.359c-.153-.081-.3-.17-.439-.259-1.368 1.275-1.038 2.928 1.006 4.016l8.181 4.359a10.529 10.529 0 0 0 8.862 0l8.181-4.359c2.047-1.088 2.38-2.741 1.008-4.016z" class="prefix__cls-1" data-name="Path 569" transform="translate(-254.765 -21.044)"/>
            <path id="prefix__Subtraction_1" d="M18.878.978a10.529 10.529 0 0 0-8.862 0L1.835 5.337c-2.447 1.3-2.447 3.418 0 4.722l8.181 4.359a10.529 10.529 0 0 0 8.862 0l8.181-4.359c2.446-1.3 2.446-3.419 0-4.722z" class="prefix__cls-2" data-name="Subtraction 1"/>
        </g>
    </g>
</svg>
